<svg xmlns="http://www.w3.org/2000/svg" viewBox="0 0 16 16" shape-rendering="crispEdges" role="img" aria-label="uWolf"><rect x="0" y="0" width="16" height="1" fill="#ffffff"/><rect x="0" y="1" width="2" height="1" fill="#ffffff"/><rect x="2" y="1" width="1" height="1" fill="#10100e"/><rect x="3" y="1" width="10" height="1" fill="#ffffff"/><rect x="13" y="1" width="1" height="1" fill="#10100e"/><rect x="14" y="1" width="2" height="1" fill="#ffffff"/><rect x="0" y="2" width="2" height="1" fill="#ffffff"/><rect x="2" y="2" width="2" height="1" fill="#10100e"/><rect x="4" y="2" width="8" height="1" fill="#ffffff"/><rect x="12" y="2" width="2" height="1" fill="#10100e"/><rect x="14" y="2" width="2" height="1" fill="#ffffff"/><rect x="0" y="3" width="1" height="1" fill="#ffffff"/><rect x="1" y="3" width="1" height="1" fill="#10100e"/><rect x="2" y="3" width="2" height="1" fill="#5e5e5e"/><rect x="4" y="3" width="1" height="1" fill="#10100e"/><rect x="5" y="3" width="6" height="1" fill="#ffffff"/><rect x="11" y="3" width="1" height="1" fill="#10100e"/><rect x="12" y="3" width="2" height="1" fill="#5e5e5e"/><rect x="14" y="3" width="1" height="1" fill="#10100e"/><rect x="15" y="3" width="1" height="1" fill="#ffffff"/><rect x="0" y="4" width="1" height="1" fill="#ffffff"/><rect x="1" y="4" width="1" height="1" fill="#10100e"/><rect x="2" y="4" width="3" height="1" fill="#5e5e5e"/><rect x="5" y="4" width="1" height="1" fill="#10100e"/><rect x="6" y="4" width="4" height="1" fill="#ffffff"/><rect x="10" y="4" width="1" height="1" fill="#10100e"/><rect x="11" y="4" width="3" height="1" fill="#5e5e5e"/><rect x="14" y="4" width="1" height="1" fill="#10100e"/><rect x="15" y="4" width="1" height="1" fill="#ffffff"/><rect x="0" y="5" width="1" height="1" fill="#ffffff"/><rect x="1" y="5" width="1" height="1" fill="#10100e"/><rect x="2" y="5" width="12" height="1" fill="#5e5e5e"/><rect x="14" y="5" width="1" height="1" fill="#10100e"/><rect x="15" y="5" width="1" height="1" fill="#ffffff"/><rect x="0" y="6" width="1" height="1" fill="#ffffff"/><rect x="1" y="6" width="1" height="1" fill="#10100e"/><rect x="2" y="6" width="12" height="1" fill="#5e5e5e"/><rect x="14" y="6" width="1" height="1" fill="#10100e"/><rect x="15" y="6" width="1" height="1" fill="#ffffff"/><rect x="0" y="7" width="1" height="1" fill="#ffffff"/><rect x="1" y="7" width="1" height="1" fill="#10100e"/><rect x="2" y="7" width="12" height="1" fill="#5e5e5e"/><rect x="14" y="7" width="1" height="1" fill="#10100e"/><rect x="15" y="7" width="1" height="1" fill="#ffffff"/><rect x="0" y="8" width="1" height="1" fill="#ffffff"/><rect x="1" y="8" width="1" height="1" fill="#10100e"/><rect x="2" y="8" width="2" height="1" fill="#5e5e5e"/><rect x="4" y="8" width="2" height="1" fill="#ffbe3c"/><rect x="6" y="8" width="4" height="1" fill="#5e5e5e"/><rect x="10" y="8" width="2" height="1" fill="#ffbe3c"/><rect x="12" y="8" width="2" height="1" fill="#5e5e5e"/><rect x="14" y="8" width="1" height="1" fill="#10100e"/><rect x="15" y="8" width="1" height="1" fill="#ffffff"/><rect x="0" y="9" width="1" height="1" fill="#ffffff"/><rect x="1" y="9" width="1" height="1" fill="#10100e"/><rect x="2" y="9" width="12" height="1" fill="#5e5e5e"/><rect x="14" y="9" width="1" height="1" fill="#10100e"/><rect x="15" y="9" width="1" height="1" fill="#ffffff"/><rect x="0" y="10" width="2" height="1" fill="#ffffff"/><rect x="2" y="10" width="1" height="1" fill="#10100e"/><rect x="3" y="10" width="4" height="1" fill="#5e5e5e"/><rect x="7" y="10" width="2" height="1" fill="#9c9c9c"/><rect x="9" y="10" width="4" height="1" fill="#5e5e5e"/><rect x="13" y="10" width="1" height="1" fill="#10100e"/><rect x="14" y="10" width="2" height="1" fill="#ffffff"/><rect x="0" y="11" width="3" height="1" fill="#ffffff"/><rect x="3" y="11" width="1" height="1" fill="#10100e"/><rect x="4" y="11" width="2" height="1" fill="#5e5e5e"/><rect x="6" y="11" width="5" height="1" fill="#9c9c9c"/><rect x="11" y="11" width="1" height="1" fill="#5e5e5e"/><rect x="12" y="11" width="1" height="1" fill="#10100e"/><rect x="13" y="11" width="3" height="1" fill="#ffffff"/><rect x="0" y="12" width="4" height="1" fill="#ffffff"/><rect x="4" y="12" width="1" height="1" fill="#10100e"/><rect x="5" y="12" width="2" height="1" fill="#5e5e5e"/><rect x="7" y="12" width="2" height="1" fill="#0a0a0a"/><rect x="9" y="12" width="2" height="1" fill="#5e5e5e"/><rect x="11" y="12" width="1" height="1" fill="#10100e"/><rect x="12" y="12" width="4" height="1" fill="#ffffff"/><rect x="0" y="13" width="5" height="1" fill="#ffffff"/><rect x="5" y="13" width="1" height="1" fill="#10100e"/><rect x="6" y="13" width="5" height="1" fill="#dedede"/><rect x="11" y="13" width="1" height="1" fill="#10100e"/><rect x="12" y="13" width="4" height="1" fill="#ffffff"/><rect x="0" y="14" width="6" height="1" fill="#ffffff"/><rect x="6" y="14" width="5" height="1" fill="#10100e"/><rect x="11" y="14" width="5" height="1" fill="#ffffff"/><rect x="0" y="15" width="16" height="1" fill="#ffffff"/></svg>